<svg width="1024" height="1024" version="1.1" xmlns="http://www.w3.org/2000/svg" desc="Created with imagetracer.js version 1.2.6" ><path fill="rgb(0,0,0)" stroke="rgb(0,0,0)" stroke-width="1" opacity="0" d="M 0 0 L 1024 0 L 1024 1024 L 0 1024 L 0 0 Z M 510 173 Q 504 199 492 220 Q 473 252 449 280 L 471 291 L 482 296 L 485 296 L 500 275 L 512 255 L 532 289 L 540 297 L 573 280 L 550 250 L 532 222 Q 520 201 513 175 L 510 173 Z M 305 241 L 304 244 L 318 272 L 321 284 L 321 293 L 322 294 L 322 345 L 323 346 L 323 364 L 345 364 L 346 288 L 385 298 L 429 313 Q 456 323 480 338 L 496 327 Q 499 326 498 321 Q 473 306 444 293 L 400 277 L 349 262 L 336 257 L 305 241 Z M 717 242 Q 702 252 684 259 L 630 275 L 576 294 Q 550 305 528 320 L 524 325 L 567 367 L 568 367 L 564 350 L 555 332 L 564 326 L 567 326 L 576 345 L 581 362 L 581 390 L 580 393 L 604 383 L 603 380 L 603 363 L 602 362 L 602 352 L 614 348 L 615 352 L 615 390 L 614 392 L 612 394 L 574 413 Q 544 432 519 453 L 519 455 L 534 469 L 536 469 L 566 445 L 598 425 L 622 414 L 639 409 L 640 409 L 639 420 L 634 446 L 627 427 L 619 429 L 588 446 Q 564 460 545 479 L 545 481 L 578 515 Q 577 517 580 516 L 587 508 L 586 503 L 575 486 L 576 481 L 583 471 Q 591 490 604 505 L 617 517 L 619 517 L 631 497 L 634 488 L 617 475 Q 604 467 599 451 L 600 449 L 637 473 L 641 468 L 654 436 L 661 411 L 664 395 L 664 383 L 663 381 L 646 383 L 637 386 L 636 322 L 635 321 L 635 314 L 595 327 Q 589 324 588 316 L 595 312 L 621 303 L 677 288 L 677 344 L 678 345 L 678 365 L 700 364 L 700 311 L 701 310 L 701 289 Q 704 287 702 282 Q 707 260 718 245 Q 719 241 717 242 Z M 512 281 L 496 302 L 495 305 L 511 316 L 527 305 L 527 302 L 513 283 Q 514 280 512 281 Z M 359 306 L 359 365 L 363 367 L 373 368 L 373 347 L 374 346 L 373 311 L 364 306 L 359 306 Z M 663 306 L 650 309 L 650 320 L 649 321 L 649 367 L 651 368 Q 659 369 664 366 L 664 307 L 663 306 Z M 388 314 L 386 316 L 386 381 L 385 385 L 353 379 L 327 378 L 326 377 L 305 377 L 304 376 L 286 376 L 285 375 L 274 375 L 273 374 L 256 373 L 234 369 L 208 362 L 211 368 L 228 388 L 238 404 L 269 472 L 279 491 L 282 493 L 298 477 L 265 402 L 265 400 L 343 401 L 344 402 L 354 402 L 375 406 L 385 410 L 368 417 L 361 417 L 353 415 L 343 415 L 342 414 L 288 414 L 286 416 L 289 426 L 307 464 L 312 464 L 325 454 L 325 450 L 318 437 L 318 435 L 327 436 L 339 444 L 368 430 L 408 418 L 408 412 L 407 411 L 407 399 L 406 398 L 407 359 L 408 358 L 408 350 L 410 348 L 419 351 L 421 354 L 420 373 L 419 374 L 420 414 L 423 427 Q 433 458 451 483 L 434 502 L 442 514 L 445 515 L 449 510 L 479 485 L 460 458 L 450 439 L 442 414 L 441 400 L 440 399 L 441 370 L 444 357 L 451 341 L 451 337 Q 422 323 388 314 Z M 510 333 L 481 354 L 479 354 L 467 346 L 464 346 L 457 358 L 453 375 L 453 401 L 454 406 L 471 416 L 475 416 Q 495 399 519 387 L 510 376 L 473 394 L 471 394 Q 487 374 510 361 L 532 381 L 537 380 L 551 373 L 549 369 L 518 337 L 513 333 L 510 333 Z M 812 362 L 799 367 L 782 371 L 755 374 L 754 375 L 745 375 L 744 376 L 720 377 L 719 378 Q 713 377 713 379 L 713 400 L 758 400 L 759 402 L 753 413 L 739 448 L 725 474 L 743 490 L 745 488 L 762 454 Q 773 424 788 398 Q 800 379 815 364 Q 816 361 812 362 Z M 680 379 L 677 384 L 676 402 L 670 428 L 659 460 L 649 481 L 649 485 L 677 511 L 679 510 L 702 486 L 706 480 L 706 477 L 683 459 Q 691 439 696 417 L 698 400 L 699 399 L 699 386 L 700 385 Q 701 379 700 379 L 680 379 Z M 564 383 L 535 395 L 533 398 L 551 413 L 560 407 L 564 401 L 568 388 Q 570 381 564 383 Z M 516 403 L 492 419 L 486 426 L 508 444 L 512 443 L 536 424 L 538 421 Q 529 409 516 403 Z M 728 413 L 727 414 L 713 414 L 709 419 Q 705 438 698 454 Q 705 461 715 465 Q 728 442 738 415 L 737 413 L 728 413 Z M 461 426 L 462 434 L 476 459 L 518 504 L 570 554 L 583 564 Q 597 550 609 533 L 609 530 L 604 524 L 599 519 L 596 519 L 581 537 L 578 538 L 572 529 L 558 513 L 496 451 L 475 434 L 461 426 Z M 406 432 Q 356 444 322 472 L 294 500 L 287 509 L 287 512 L 304 526 L 318 509 Q 334 489 356 476 L 382 464 L 398 460 L 399 460 L 374 489 L 369 485 L 362 488 L 346 500 L 358 513 L 353 523 Q 354 525 351 524 L 340 513 Q 339 510 336 510 Q 324 521 316 536 Q 326 544 340 549 L 340 553 L 330 580 L 325 602 L 347 601 L 348 600 L 350 590 L 357 570 L 374 531 L 394 498 L 411 479 L 413 479 L 424 490 L 426 490 L 435 482 L 417 449 Q 416 439 411 434 Q 412 431 406 432 Z M 718 487 L 706 502 Q 681 533 641 547 L 652 531 L 665 521 L 659 513 L 647 500 L 645 500 L 624 535 L 594 573 L 608 581 L 619 579 L 646 570 L 670 560 Q 691 549 708 534 Q 723 521 735 505 L 733 501 L 720 487 L 718 487 Z M 489 494 L 468 510 Q 453 522 443 538 L 437 528 L 419 505 L 414 499 L 410 499 L 399 514 L 394 524 L 412 537 Q 426 549 435 567 Q 459 544 489 525 L 512 547 Q 511 549 514 548 L 517 552 Q 519 551 518 554 L 553 587 L 569 600 Q 590 615 618 625 L 641 632 L 675 638 L 707 639 L 708 640 L 728 640 L 729 641 L 746 641 L 747 642 L 767 643 L 791 648 L 811 655 L 814 655 L 813 652 Q 796 635 784 615 L 771 588 L 756 551 L 742 522 L 740 522 L 724 537 L 724 540 L 736 561 L 747 592 L 758 617 L 759 618 L 757 617 L 746 617 L 745 616 L 714 616 L 713 615 L 672 614 L 638 607 L 613 598 Q 586 587 567 569 L 491 494 L 489 494 Z M 280 524 L 265 554 L 241 610 L 230 628 L 211 650 L 208 655 L 242 646 L 259 643 L 277 642 L 278 641 L 292 641 L 293 640 L 315 640 L 316 639 L 346 638 L 347 637 L 354 637 L 370 634 L 386 630 L 386 694 L 387 695 L 387 703 Q 410 698 429 690 L 435 702 L 421 708 L 347 732 L 345 653 L 330 653 L 323 654 L 323 673 L 322 674 L 322 725 L 321 726 L 321 734 Q 316 758 304 777 L 305 779 Q 323 767 346 758 L 450 723 Q 477 711 500 696 L 458 650 Q 459 647 457 648 L 455 648 L 455 656 L 457 665 L 468 688 L 457 693 L 454 691 L 448 678 L 444 666 L 441 649 L 442 625 Q 445 609 453 600 L 469 584 L 504 559 L 490 543 L 485 544 L 476 550 L 452 569 Q 440 579 431 593 L 424 607 L 420 624 L 420 660 L 421 665 Q 416 669 408 670 L 408 661 L 407 660 L 407 623 L 412 601 L 413 599 L 409 599 L 390 606 L 382 607 L 384 593 L 389 575 Q 388 571 391 572 L 395 590 L 422 579 L 421 571 L 412 557 L 399 544 L 391 538 L 386 537 L 368 577 L 358 612 L 352 614 L 340 614 L 339 615 L 310 615 L 309 616 L 278 616 L 277 617 L 267 617 L 265 618 L 275 595 L 288 559 L 297 542 L 295 537 Q 289 528 280 524 Z M 310 548 L 306 552 L 301 562 L 287 598 Q 286 602 288 602 L 311 602 Q 315 580 324 562 L 324 558 L 310 548 Z M 712 548 L 697 560 L 706 579 L 706 581 Q 692 577 685 568 Q 660 580 632 588 L 630 591 L 643 595 L 667 600 L 690 601 L 691 602 L 736 602 L 737 601 Q 728 574 716 551 Q 716 548 712 548 Z M 513 569 L 485 587 L 484 590 Q 495 601 509 610 L 534 595 L 537 591 L 516 570 L 513 569 Z M 471 599 Q 461 606 457 619 L 455 631 L 491 618 L 493 614 L 476 600 L 471 599 Z M 548 602 L 506 626 L 503 629 L 515 640 L 519 639 L 537 628 L 548 625 Q 554 624 553 627 L 516 657 L 514 657 L 497 641 L 495 638 L 489 633 L 471 640 L 473 647 L 482 658 L 513 687 L 542 665 L 555 673 L 559 674 Q 568 661 571 642 Q 578 641 581 647 L 579 662 L 572 679 L 572 682 Q 601 695 635 703 L 636 698 L 636 646 Q 627 640 616 639 L 615 645 L 615 667 L 614 670 L 602 665 L 603 633 L 584 624 L 552 603 L 548 602 Z M 368 648 L 361 650 L 359 652 L 359 712 L 364 712 L 374 708 L 374 655 L 373 650 Q 372 647 368 648 Z M 650 648 L 649 651 L 649 708 L 660 712 Q 664 712 664 712 L 664 652 L 663 650 L 650 648 Z M 678 652 L 677 655 L 677 731 L 589 703 Q 565 694 545 682 L 539 683 L 531 689 L 525 695 L 525 697 Q 545 712 571 722 L 597 732 L 678 758 L 702 769 L 719 779 L 709 759 L 702 736 L 701 717 L 700 716 L 700 654 L 678 652 Z M 511 704 L 495 716 L 509 738 L 513 740 Q 519 727 528 716 L 515 705 L 511 704 Z M 483 722 L 453 738 L 449 742 Q 472 769 491 801 Q 503 822 510 850 L 513 851 L 513 847 L 518 832 L 533 799 L 549 774 L 574 741 L 540 722 L 529 736 L 512 767 Q 501 745 487 726 L 483 722 Z " /><path fill="rgb(216,183,82)" stroke="rgb(216,183,82)" stroke-width="1" opacity="0.9411764705882353" d="M 510 173 L 513 174.5 Q 519.8 200.8 532 221.5 L 550 249.5 L 573 279.5 L 539.5 297 L 532 288.5 L 511.5 255 L 500 274.5 L 484.5 296 L 481.5 296 L 470.5 291 L 449 279.5 Q 472.9 251.9 492 219.5 Q 504 198.7 510 173 Z " /><path fill="rgb(216,183,82)" stroke="rgb(216,183,82)" stroke-width="1" opacity="0.9411764705882353" d="M 304.5 241 L 335.5 257 L 348.5 262 L 399.5 277 L 443.5 293 Q 472.7 305.8 498 321 Q 499 325.7 495.5 327 L 479.5 338 Q 456.4 323.1 428.5 313 L 384.5 298 L 346 288 L 345 364 L 323 364 L 323 345.5 L 322 344.5 L 322 293.5 L 321 292.5 L 321 283.5 L 318 271.5 L 304 243.5 L 304.5 241 Z " /><path fill="rgb(216,183,82)" stroke="rgb(216,183,82)" stroke-width="1" opacity="0.9411764705882353" d="M 716.5 242 Q 719.1 241.2 718 244.5 Q 707.2 260.2 702 281.5 Q 703.5 287 701 288.5 L 701 309.5 L 700 310.5 L 700 364 L 678 365 L 678 344.5 L 677 343.5 L 677 288 L 620.5 303 L 594.5 312 L 588 315.5 Q 588.8 323.8 594.5 327 L 635 314 L 635 320.5 L 636 321.5 L 636.5 386 L 645.5 383 L 662.5 381 L 664 382.5 L 664 394.5 L 661 410.5 L 654 435.5 L 641 467.5 L 636.5 473 L 599.5 449 L 599 450.5 Q 603.9 466.6 616.5 475 L 634 488 L 631 496.5 L 619 517 L 616.5 517 L 604 504.5 Q 590.7 490.3 582.5 471 L 576 480.5 L 575 485.5 L 586 502.5 L 587 507.5 L 579.5 516 Q 577.3 516.8 578 514.5 L 545 480.5 L 545 478.5 Q 564.3 460.3 587.5 446 L 618.5 429 L 627 427 L 633.5 446 L 639 419.5 L 640 408.5 L 638.5 409 L 621.5 414 L 597.5 425 L 565.5 445 L 535.5 469 L 533.5 469 L 519 454.5 L 519 453 Q 544.5 431.7 573.5 413 L 611.5 394 L 614 391.5 L 615 389.5 L 615 351.5 L 613.5 348 L 602 352 L 602 361.5 L 603 362.5 L 603 379.5 L 604 383 L 580 393 L 581 389.5 L 581 361.5 L 576 344.5 L 567 326 L 563.5 326 L 555 331.5 L 564 349.5 L 568 367 L 566.5 367 L 524 324.5 L 527.5 320 Q 549.6 305.1 575.5 294 L 629.5 275 L 683.5 259 Q 701.7 252.2 716.5 242 Z " /><path fill="rgb(216,183,82)" stroke="rgb(216,183,82)" stroke-width="1" opacity="0.9411764705882353" d="M 511.5 281 Q 513.8 280.3 513 282.5 L 527 301.5 L 527 304.5 L 510.5 316 L 495 305 L 496 301.5 L 511.5 281 Z " /><path fill="rgb(216,183,82)" stroke="rgb(216,183,82)" stroke-width="1" opacity="0.9411764705882353" d="M 359 306 L 363.5 306 L 373 310.5 L 374 345.5 L 373 346.5 L 373 368 L 362.5 367 L 359 364.5 L 359 306 Z " /><path fill="rgb(216,183,82)" stroke="rgb(216,183,82)" stroke-width="1" opacity="0.9411764705882353" d="M 662.5 306 L 664 306.5 L 664 365.5 Q 659.5 369 650.5 368 L 649 366.5 L 649 320.5 L 650 319.5 L 650 309 L 662.5 306 Z " /><path fill="rgb(216,183,82)" stroke="rgb(216,183,82)" stroke-width="1" opacity="0.9411764705882353" d="M 387.5 314 Q 422.1 323.2 451 337 L 451 340.5 L 444 356.5 L 441 369.5 L 440 398.5 L 441 399.5 L 442 413.5 L 450 438.5 L 460 457.5 L 479 484.5 L 449 509.5 L 444.5 515 L 442 513.5 L 434 501.5 L 451 482.5 Q 433 458.5 423 426.5 L 420 413.5 L 419 373.5 L 420 372.5 L 421 353.5 L 418.5 351 L 409.5 348 L 408 349.5 L 408 357.5 L 407 358.5 L 406 397.5 L 407 398.5 L 407 410.5 L 408 411.5 L 408 418 L 367.5 430 L 338.5 444 L 326.5 436 L 317.5 435 L 318 436.5 L 325 449.5 L 325 454 L 311.5 464 L 307 464 L 289 425.5 L 286 415.5 L 287.5 414 L 341.5 414 L 342.5 415 L 352.5 415 L 360.5 417 L 367.5 417 L 385 409.5 L 374.5 406 L 353.5 402 L 343.5 402 L 342.5 401 L 264.5 400 L 265 401.5 L 298 476.5 L 281.5 493 L 279 490.5 L 269 471.5 L 238 403.5 L 228 387.5 L 211 367.5 L 208 362 L 233.5 369 L 255.5 373 L 272.5 374 L 273.5 375 L 284.5 375 L 285.5 376 L 303.5 376 L 304.5 377 L 325.5 377 L 326.5 378 L 352.5 379 L 385 385 L 386 380.5 L 386 315.5 L 387.5 314 Z " /><path fill="rgb(216,183,82)" stroke="rgb(216,183,82)" stroke-width="1" opacity="0.9411764705882353" d="M 509.5 333 L 512.5 333 L 517.5 337 L 549 368.5 L 551 372.5 L 536.5 380 L 531.5 381 L 509.5 361 Q 487.4 374.4 471 393.5 L 472.5 394 L 509.5 376 L 519 386.5 Q 494.9 399.4 474.5 416 L 470.5 416 L 454 405.5 L 453 400.5 L 453 374.5 L 457 357.5 L 463.5 346 L 466.5 346 L 478.5 354 L 480.5 354 L 509.5 333 Z " /><path fill="rgb(216,183,82)" stroke="rgb(216,183,82)" stroke-width="1" opacity="0.9411764705882353" d="M 811.5 362 Q 815.9 360.5 815 363.5 Q 799.6 378.6 788 397.5 Q 773.2 423.7 762 453.5 L 745 487.5 L 742.5 490 L 725 473.5 L 739 447.5 L 753 412.5 L 759 401.5 L 757.5 400 L 713 400 L 713 378.5 Q 713.1 377.4 718.5 378 L 719.5 377 L 743.5 376 L 744.5 375 L 753.5 375 L 754.5 374 L 781.5 371 L 798.5 367 L 811.5 362 Z " /><path fill="rgb(216,183,82)" stroke="rgb(216,183,82)" stroke-width="1" opacity="0.9411764705882353" d="M 679.5 379 L 699.5 379 Q 700.6 379.1 700 384.5 L 699 385.5 L 699 398.5 L 698 399.5 L 696 416.5 Q 691.1 439.1 683 458.5 L 706 476.5 L 706 479.5 L 702 485.5 L 678.5 510 L 676.5 511 L 649 484.5 L 649 480.5 L 659 459.5 L 670 427.5 L 676 401.5 L 677 383.5 L 679.5 379 Z " /><path fill="rgb(216,183,82)" stroke="rgb(216,183,82)" stroke-width="1" opacity="0.9411764705882353" d="M 563.5 383 Q 570.3 380.8 568 387.5 L 564 400.5 L 559.5 407 L 550.5 413 L 533 397.5 L 534.5 395 L 563.5 383 Z " /><path fill="rgb(216,183,82)" stroke="rgb(216,183,82)" stroke-width="1" opacity="0.9411764705882353" d="M 515.5 403 Q 529.1 409.4 538 420.5 L 535.5 424 L 511.5 443 L 507.5 444 L 486 425.5 L 491.5 419 L 515.5 403 Z " /><path fill="rgb(216,183,82)" stroke="rgb(216,183,82)" stroke-width="1" opacity="0.9411764705882353" d="M 727.5 413 L 736.5 413 L 738 414.5 Q 728.3 442 715 465 Q 705.1 461.4 698 453.5 Q 705.3 437.8 709 418.5 L 712.5 414 L 726.5 414 L 727.5 413 Z " /><path fill="rgb(216,183,82)" stroke="rgb(216,183,82)" stroke-width="1" opacity="0.9411764705882353" d="M 461 426 L 474.5 434 L 495.5 451 L 558 512.5 L 572 528.5 L 578 538 L 581 536.5 L 595.5 519 L 598.5 519 L 604 523.5 L 609 529.5 L 609 532.5 Q 597.3 549.8 582.5 564 L 569.5 554 L 518 503.5 L 476 458.5 L 462 433.5 L 461 426 Z " /><path fill="rgb(216,183,82)" stroke="rgb(216,183,82)" stroke-width="1" opacity="0.9411764705882353" d="M 405.5 432 Q 411.6 430.8 411 433.5 Q 415.5 439.5 417 448.5 L 435 481.5 L 425.5 490 L 423.5 490 L 412.5 479 L 410.5 479 L 394 497.5 L 374 530.5 L 357 569.5 L 350 589.5 L 348 599.5 L 346.5 601 L 325 602 L 330 579.5 L 340 552.5 L 340 549 Q 326.4 544.2 316 535.5 Q 323.5 520.5 335.5 510 Q 339.5 509.5 340 512.5 L 350.5 524 Q 353.8 525.1 353 522.5 L 358 512.5 L 346 499.5 L 361.5 488 L 368.5 485 L 373.5 489 L 398 460.5 L 394.5 460 Q 345.4 473.4 318 508.5 L 303.5 526 L 287 511.5 L 287 508.5 L 294 499.5 L 321.5 472 Q 355.9 444.4 405.5 432 Z " /><path fill="rgb(216,183,82)" stroke="rgb(216,183,82)" stroke-width="1" opacity="0.9411764705882353" d="M 717.5 487 L 719.5 487 L 733 500.5 L 735 504.5 Q 723 521 707.5 534 Q 690.9 549.4 669.5 560 L 645.5 570 L 618.5 579 L 607.5 581 L 594 572.5 L 624 534.5 L 644.5 500 L 646.5 500 L 659 512.5 L 665 520.5 L 652 530.5 L 641 547 Q 681.3 532.5 706 501.5 L 717.5 487 Z " /><path fill="rgb(216,183,82)" stroke="rgb(216,183,82)" stroke-width="1" opacity="0.9411764705882353" d="M 488.5 494 L 490.5 494 L 566.5 569 Q 586.2 586.8 612.5 598 L 637.5 607 L 671.5 614 L 712.5 615 L 713.5 616 L 744.5 616 L 745.5 617 L 756.5 617 L 758.5 618 L 758 616.5 L 747 591.5 L 736 560.5 L 724 539.5 L 724 536.5 L 739.5 522 L 742 522 L 756 550.5 L 771 587.5 L 784 614.5 Q 796.1 635.4 813 651.5 L 814 655 L 810.5 655 L 790.5 648 L 766.5 643 L 746.5 642 L 745.5 641 L 728.5 641 L 727.5 640 L 707.5 640 L 706.5 639 L 674.5 638 L 640.5 632 L 617.5 625 Q 590.3 615.2 568.5 600 L 552.5 587 L 518 553.5 Q 518.8 551.3 516.5 552 L 513.5 548 Q 511.3 548.8 512 546.5 L 488.5 525 Q 459.2 543.7 434.5 567 Q 426 549 411.5 537 L 394 523.5 L 399 513.5 L 410 499 L 413.5 499 L 419 504.5 L 437 527.5 L 442.5 538 Q 453.2 522.2 467.5 510 L 488.5 494 Z " /><path fill="rgb(216,183,82)" stroke="rgb(216,183,82)" stroke-width="1" opacity="0.9411764705882353" d="M 280 524 Q 289.1 527.9 295 536.5 L 297 541.5 L 288 558.5 L 275 594.5 L 265 617.5 L 266.5 617 L 276.5 617 L 277.5 616 L 308.5 616 L 309.5 615 L 338.5 615 L 339.5 614 L 351.5 614 L 358 611.5 L 368 576.5 L 386 537 L 390.5 538 L 398.5 544 L 412 556.5 L 421 570.5 L 422 579 L 395 590 L 391 572 Q 388 570.8 389 574.5 L 384 592.5 L 382 607 L 389.5 606 L 408.5 599 L 412.5 599 L 412 600.5 L 407 622.5 L 407 659.5 L 408 660.5 L 408 670 Q 415.8 669 421 664.5 L 420 659.5 L 420 623.5 L 424 606.5 L 431 592.5 Q 439.5 579 451.5 569 L 475.5 550 L 484.5 544 L 489.5 543 L 504 558.5 L 468.5 584 L 453 599.5 Q 444.8 609.3 442 624.5 L 441 648.5 L 444 665.5 L 448 677.5 L 454 690.5 L 456.5 693 L 468 687.5 L 457 664.5 L 455 655.5 L 455 647.5 L 456.5 648 Q 458.8 647.3 458 649.5 L 500 695.5 Q 477 711.5 449.5 723 L 345.5 758 Q 323 766.5 304.5 779 L 304 776.5 Q 315.8 758.3 321 733.5 L 321 725.5 L 322 724.5 L 322 673.5 L 323 672.5 L 323 654 L 329.5 653 L 345 653 L 346.5 732 L 420.5 708 L 435 701.5 L 429 690 Q 409.5 698.1 387 703 L 387 694.5 L 386 693.5 L 386 630 L 369.5 634 L 353.5 637 L 346.5 637 L 345.5 638 L 315.5 639 L 314.5 640 L 292.5 640 L 291.5 641 L 277.5 641 L 276.5 642 L 258.5 643 L 241.5 646 L 208 655 L 211 649.5 L 230 627.5 L 241 609.5 L 265 553.5 L 280 524 Z " /><path fill="rgb(216,183,82)" stroke="rgb(216,183,82)" stroke-width="1" opacity="0.9411764705882353" d="M 309.5 548 L 324 557.5 L 324 561.5 Q 314.8 579.7 311 602 L 287.5 602 Q 286.5 602 287 597.5 L 301 561.5 L 306 551.5 L 309.5 548 Z " /><path fill="rgb(216,183,82)" stroke="rgb(216,183,82)" stroke-width="1" opacity="0.9411764705882353" d="M 711.5 548 Q 715.5 547.5 716 550.5 Q 728.2 573.8 737 600.5 L 735.5 602 L 690.5 602 L 689.5 601 L 666.5 600 L 642.5 595 L 630 591 L 631.5 588 Q 660.3 580.3 684.5 568 Q 692.4 577.1 705.5 581 L 706 578.5 L 697 559.5 L 711.5 548 Z " /><path fill="rgb(216,183,82)" stroke="rgb(216,183,82)" stroke-width="1" opacity="0.9411764705882353" d="M 512.5 569 L 515.5 570 L 537 590.5 L 533.5 595 L 508.5 610 Q 494.6 601.4 484 589.5 L 485 587 L 512.5 569 Z " /><path fill="rgb(216,183,82)" stroke="rgb(216,183,82)" stroke-width="1" opacity="0.9411764705882353" d="M 470.5 599 L 475.5 600 L 493 614 L 490.5 618 L 455 631 L 457 618.5 Q 461.5 606.5 470.5 599 Z " /><path fill="rgb(216,183,82)" stroke="rgb(216,183,82)" stroke-width="1" opacity="0.9411764705882353" d="M 547.5 602 L 551.5 603 L 583.5 624 L 603 633 L 602 665 L 613.5 670 L 615 666.5 L 615 644.5 L 616 639 Q 627.4 640 636 645.5 L 636 697.5 L 635 703 Q 601.2 695 572 681.5 L 572 678.5 L 579 661.5 L 581 646.5 Q 578.1 641.2 571 642 Q 568.4 661.1 558.5 674 L 554.5 673 L 541.5 665 L 512.5 687 L 482 657.5 L 473 646.5 L 471 640 L 488.5 633 L 495 638 L 496.5 641 L 513.5 657 L 515.5 657 L 553 626.5 Q 553.6 623.8 547.5 625 L 536.5 628 L 518.5 639 L 514.5 640 L 503 628.5 L 505.5 626 L 547.5 602 Z " /><path fill="rgb(216,183,82)" stroke="rgb(216,183,82)" stroke-width="1" opacity="0.9411764705882353" d="M 367.5 648 Q 372 647 373 649.5 L 374 654.5 L 374 707.5 L 363.5 712 L 359 712 L 359 651.5 L 360.5 650 L 367.5 648 Z " /><path fill="rgb(216,183,82)" stroke="rgb(216,183,82)" stroke-width="1" opacity="0.9411764705882353" d="M 650 648 L 662.5 650 L 664 651.5 L 664 711.5 Q 664 712.5 659.5 712 L 649 707.5 L 649 650.5 L 650 648 Z " /><path fill="rgb(216,183,82)" stroke="rgb(216,183,82)" stroke-width="1" opacity="0.9411764705882353" d="M 678 652 L 700 654 L 700 715.5 L 701 716.5 L 702 735.5 L 709 758.5 L 719 779 L 701.5 769 L 677.5 758 L 596.5 732 L 570.5 722 Q 545.2 711.6 525 697 L 525 694.5 L 530.5 689 L 538.5 683 L 544.5 682 Q 564.5 694.5 588.5 703 L 677 731 L 677 654.5 L 678 652 Z " /><path fill="rgb(216,183,82)" stroke="rgb(216,183,82)" stroke-width="1" opacity="0.9411764705882353" d="M 510.5 704 L 514.5 705 L 528 715.5 Q 518.5 726.5 513 740 L 509 737.5 L 495 715.5 L 510.5 704 Z " /><path fill="rgb(216,183,82)" stroke="rgb(216,183,82)" stroke-width="1" opacity="0.9411764705882353" d="M 482.5 722 L 487 725.5 Q 500.8 744.8 511.5 767 L 529 735.5 L 539.5 722 L 574 740.5 L 549 773.5 L 533 798.5 L 518 831.5 L 513 846.5 L 513 851 L 510 849.5 Q 503.3 822.2 491 800.5 Q 471.8 769.2 449 741.5 L 452.5 738 L 482.5 722 Z " /></svg>