<svg width="1024" height="171" xmlns="http://www.w3.org/2000/svg"><defs><linearGradient id="stgra_7812" x1="0%" y1="0%" x2="0%" y2="100%" gradientUnits="userSpaceOnUse"><stop offset="0%" style="stop-color:#e6b980"/><stop offset="50%" style="stop-color:#c9ae5d"/><stop offset="100%" style="stop-color:#ffd700"/></linearGradient><mask id="overlay_mask">
  <defs id="defs3"/>
  <sodipodi:namedview id="namedview3" pagecolor="#ffffff" bordercolor="#000000" borderopacity="0.25" xmlns:inkscape="http://www.inkscape.org/namespaces/inkscape" inkscape:showpageshadow="2" inkscape:pageopacity="0.0" inkscape:pagecheckerboard="0" inkscape:deskcolor="#d1d1d1" xmlns:sodipodi="http://sodipodi.sourceforge.net/DTD/sodipodi-0.dtd"/>
  <g fill="white" id="g3">
    <g transform="translate(125.85833916711277, 15.816362427715063) scale(0.7722833216657744)" id="g2">
      <g transform="translate(-5.4274084124830395, 137.04206241519674) rotate(0)" id="g1">
        <path d="m 737.84952,-51.3 q 2.85,8.55 2.85,19.8 0,7.95 -1.65,15.15 -1.5,7.2 -4.5,12 -10.2,4.8 -19.8,4.8 -7.05,0 -12.6,-2.7 -5.4,-2.85 -8.7,-8.25 h -1.35 q -3.3,5.4 -8.55,8.4 -5.1,2.85 -11.4,2.85 -6,0 -11.1,-2.85 -5.1,-2.85 -8.1,-8.4 h -1.35 q -4.95,6.6 -10.2,8.55 -5.1,1.95 -12.45,1.95 -2.25,0 -3.15,-3.3 -0.9,-3.45 -0.9,-10.65 0,-7.05 0.9,-10.5 0.75,-3.45 3.15,-3.45 6.15,0 10.2,-0.75 4.2,-0.9 7.65,-4.35 3.45,-3.6 4.35,-11.1 h 12.45 q 0.75,17.1 10.8,17.1 5.1,0 9,-4.05 4.05,-4.05 6,-12.75 l 12.6,1.95 q -0.3,2.7 -0.3,3.9 0,11.55 9.75,11.55 3.15,0 7.95,-1.35 -1.35,-5.7 -3.3,-11.25 -1.8,-5.55 -2.25,-6.75 z m -108.89994,23.4 q 2.4,0 3.15,3.45 0.9,3.45 0.9,10.5 0,7.2 -0.9,10.65 -0.9,3.3 -3.15,3.3 -8.4,0 -15.9,-3.6 -7.35,-3.6 -10.95,-10.2 -7.95,0.45 -16.65,3.6 -4.05,1.5 -7.5,2.85 -9.15,3.6 -16.35,5.55 -7.2,1.8 -16.65,1.8 -2.25,0 -3.15,-3.3 -0.9,-3.45 -0.9,-10.65 0,-7.05 0.9,-10.5 0.75,-3.45 3.15,-3.45 8.1,0 13.8,-1.05 5.85,-1.05 15.3,-3.3 l 3.75,-0.9 9.3,-2.1 q -5.7,-3.15 -9.6,-4.65 -4.2,-1.65 -9,-2.25 -4.8,-0.75 -12.45,-1.2 l -3.3,-0.15 -0.6,-0.6 q 0.6,-5.7 2.25,-12.6 1.8,-7.05 3.45,-10.35 3.15,-0.45 5.85,-0.45 5.55,0 10.35,1.8 4.8,1.65 9.75,4.8 l 5.25,3.45 q 12.6,8.1 19.05,12 6.45,3.75 9.15,3.75 -0.45,7.5 -1.5,12.75 5.55,1.05 13.2,1.05 z m -43.8,59.25 q -3.15,-1.2 -8.25,-4.8 -5.1,-3.45 -7.05,-6 0.45,-1.95 2.25,-5.4 1.95,-3.3 4.35,-6.15 2.4,-2.7 4.2,-3 1.65,-0.3 4.95,1.5 3.45,1.8 6.3,4.35 3,2.7 3.3,4.2 0.6,2.25 -3.45,7.8 -3.9,5.7 -6.6,7.5 z M 544.94973,-27.9 q 2.4,0 3.15,3.45 0.9,3.45 0.9,10.5 0,7.2 -0.9,10.65 -0.9,3.3 -3.15,3.3 -8.25,0 -16.05,-1.05 -7.65,-1.05 -12.9,-3.3 -1.35,-5.4 -2.25,-48.75 l -0.9,-30.45 24.15,-1.35 q 1.35,22.35 1.35,41.1 0,5.7 -0.3,15.3 3.75,0.6 6.9,0.6 z m -43.80011,-23.4 q 2.7,8.55 2.7,19.65 0,8.1 -1.65,15.3 -1.5,7.2 -4.5,12 -6,2.1 -13.8,3.3 -7.8,1.05 -16.05,1.05 -7.95,0 -15.3,-1.05 -7.2,-1.2 -12.45,-3.3 -1.35,-5.4 -2.25,-48.75 l -0.9,-30.45 24.15,-1.35 q 1.35,22.35 1.35,40.95 0,5.7 -0.3,15.3 5.25,0.75 9.9,0.75 6,0 10.2,-1.2 -1.35,-5.55 -5.25,-16.65 z m -20.25,58.65 q 2.4,0 7.5,3.6 5.25,3.75 5.7,5.85 0.3,2.25 -3.3,7.35 -3.6,5.1 -6.15,6.9 -2.85,-1.2 -7.2,-4.2 -4.35,-2.85 -6.45,-5.25 -1.5,2.7 -3.9,5.55 -2.4,2.85 -3.9,3.9 -3,-1.35 -7.65,-4.65 -4.65,-3.15 -6.6,-5.4 0.9,-3.15 4.5,-8.4 3.6,-5.25 6,-5.25 2.4,0 7.2,3.3 4.8,3.45 5.85,5.7 2.1,-3.75 4.35,-6.45 2.25,-2.55 4.05,-2.55 z M 32.1,-62.4 q 0,3.15 3.15,4.95 3.3,1.8 10.2,3.9 8.25,2.7 13.5,5.25 5.4,2.55 9.3,7.95 4.05,5.4 4.05,14.1 0,27.9 -36.3,27.9 -6,0 -14.7,-1.05 -8.55,-1.05 -15.6,-2.7 0.3,-3.15 1.2,-9.15 1.05,-6.15 1.95,-9.15 5.25,0.75 15.75,1.8 10.65,1.05 16.05,1.05 3.15,0 3.75,-0.45 0.9,-0.6 1.35,-1.95 0.6,-1.5 0.6,-2.55 0,-3 -2.85,-4.5 -2.85,-1.65 -9.75,-3.9 -8.25,-2.55 -13.65,-5.25 -5.4,-2.7 -9.45,-8.4 -4.05,-5.7 -4.05,-15 0,-6.6 3,-12.9 3,-6.45 6.15,-8.7 2.4,-1.65 9.9,-3.15 7.5,-1.5 14.1,-1.5 16.8,0 27.45,3.15 -0.15,3 -1.05,8.25 -0.75,5.25 -1.65,9.6 l -3.45,-0.15 q -19.5,-1.35 -24.9,-1.35 -2.25,0 -2.55,0.15 -0.6,0.3 -1.05,1.35 -0.45,1.05 -0.45,2.4 z m 92.39991,62.4 -2.4,-9.45 q -6.9,11.25 -19.2,11.25 -10.050002,0 -16.500002,-5.55 -6.3,-5.7 -6.3,-15.9 0,-6.3 3.6,-10.95 3.75,-4.8 10.2,-6.75 8.400002,-2.4 25.950002,-2.7 0,-9.9 -0.9,-10.5 -0.75,-0.6 -4.8,-0.6 -2.55,0 -7.05,0.3 -7.200002,0.3 -19.500002,1.65 -1.2,-8.1 -1.8,-17.4 7.95,-1.65 16.650002,-2.7 8.7,-1.2 15.6,-1.2 12,0 18,4.05 6,3.9 7.8,10.35 1.8,6.45 1.65,16.35 l -0.15,22.05 0.45,17.7 z m -12.9,-15 q 3.9,0 8.25,-1.5 v -11.1 h -1.2 q -11.1,0 -12.3,1.2 -0.75,0.75 -1.2,2.25 -0.3,1.5 -0.3,2.85 0,3.6 1.65,4.95 1.65,1.35 5.1,1.35 z m 58.79989,-62.55 q -5.1,0 -8.85,-3.45 -3.6,-3.45 -3.6,-8.25 0,-4.8 3.6,-8.25 3.75,-3.45 8.85,-3.45 5.1,0 8.7,3.45 3.6,3.45 3.6,8.25 0,4.8 -3.6,8.25 -3.6,3.45 -8.7,3.45 z m -13.8,85.95 q 0.75,-1.2 0.75,-4.8 0,-3.6 0,-4.2 V -69 h 25.65 v 59.7 q 0,10.2 -2.1,18.45 -2.1,8.25 -6.15,13.2 -2.25,2.85 -7.35,4.2 -5.1,1.35 -11.55,1.35 -7.65,0 -13.5,-1.5 -0.75,-5.7 -0.75,-10.65 0,-3.45 0.15,-5.25 13.65,-0.45 14.85,-2.1 z m 80.2499,-8.4 -2.4,-9.45 q -6.9,11.25 -19.2,11.25 -10.05,0 -16.5,-5.55 -6.3,-5.7 -6.3,-15.9 0,-6.3 3.6,-10.95 3.75,-4.8 10.2,-6.75 8.4,-2.4 25.95,-2.7 0,-9.9 -0.9,-10.5 -0.75,-0.6 -4.8,-0.6 -2.55,0 -7.05,0.3 -7.2,0.3 -19.5,1.65 -1.2,-8.1 -1.8,-17.4 7.95,-1.65 16.65,-2.7 8.7,-1.2 15.6,-1.2 12,0 18,4.05 6,3.9 7.8,10.35 1.8,6.45 1.65,16.35 l -0.15,22.05 0.45,17.7 z m -12.9,-15 q 3.9,0 8.25,-1.5 v -11.1 h -1.2 q -11.1,0 -12.3,1.2 -0.75,0.75 -1.2,2.25 -0.3,1.5 -0.3,2.85 0,3.6 1.65,4.95 1.65,1.35 5.1,1.35 z m 116.8499,-54 -18,57.75 q -5.25,16.65 -9.45,24.15 -4.2,7.65 -8.4,10.65 -2.4,1.65 -7.65,2.55 -5.1,0.9 -11.1,0.9 -9,0 -14.4,-1.65 -0.15,-3.6 0.3,-8.85 0.45,-5.1 1.2,-8.7 6.3,0.3 12.3,0.3 4.5,0 6.75,-0.15 2.25,-4.35 4.2,-9.15 l -10.35,-0.6 -23.1,-67.2 h 27.15 l 12,48.3 0.15,2.85 h 0.45 l 10.8,-51.15 z m 42.7502,69 -2.4,-9.45 q -6.9,11.25 -19.2,11.25 -10.05,0 -16.5,-5.55 -6.3,-5.7 -6.3,-15.9 0,-6.3 3.6,-10.95 3.75,-4.8 10.2,-6.75 8.4,-2.4 25.95,-2.7 0,-9.9 -0.9,-10.5 -0.75,-0.6 -4.8,-0.6 -2.55,0 -7.05,0.3 -7.2,0.3 -19.5,1.65 -1.2,-8.1 -1.8,-17.4 7.95,-1.65 16.65,-2.7 8.7,-1.2 15.6,-1.2 12,0 18,4.05 6,3.9 7.8,10.35 1.8,6.45 1.65,16.35 l -0.15,22.05 0.45,17.7 z m -12.9,-15 q 3.9,0 8.25,-1.5 v -11.1 h -1.2 q -11.1,0 -12.3,1.2 -0.75,0.75 -1.2,2.25 -0.3,1.5 -0.3,2.85 0,3.6 1.65,4.95 1.65,1.35 5.1,1.35 z" id="text1" style="font-size:150px;font-family:f16251;direction:rtl;text-anchor:end" transform="scale(1.3568521)" aria-label="سجايا Sajaya"/>
      </g>
    </g>
  </g>
</mask></defs><rect width="100%" height="100%" fill="url(#stgra_7812)" mask="url(#overlay_mask)"/></svg>